<svg width="157" height="45" viewBox="0 0 157 45" fill="none" xmlns="http://www.w3.org/2000/svg">
<path d="M64.6836 24.651V6.33076H71.2479L74.8831 22.2955H75.3538V6.33076H78.7537V24.651H72.1894L68.5542 8.68621H68.0834V24.651H64.6836Z" fill="white"/>
<path d="M91.9325 25.0174C89.6311 25.0174 87.8004 24.3892 86.4405 23.133C85.0806 21.8593 84.4006 20.0447 84.4006 17.6893V13.2924C84.4006 10.937 85.0806 9.13113 86.4405 7.87489C87.8004 6.6012 89.6311 5.96436 91.9325 5.96436C94.234 5.96436 96.0647 6.6012 97.4246 7.87489C98.7845 9.13113 99.4645 10.937 99.4645 13.2924V17.6893C99.4645 20.0447 98.7845 21.8593 97.4246 23.133C96.0647 24.3892 94.234 25.0174 91.9325 25.0174ZM91.9325 21.9291C93.2227 21.9291 94.2253 21.554 94.9401 20.8037C95.6549 20.0535 96.0123 19.0502 96.0123 17.794V13.1877C96.0123 11.9315 95.6549 10.9283 94.9401 10.178C94.2253 9.42775 93.2227 9.05262 91.9325 9.05262C90.6598 9.05262 89.6573 9.42775 88.925 10.178C88.2102 10.9283 87.8527 11.9315 87.8527 13.1877V17.794C87.8527 19.0502 88.2102 20.0535 88.925 20.8037C89.6573 21.554 90.6598 21.9291 91.9325 21.9291Z" fill="white"/>
<path d="M108.15 24.651L103.495 6.33076H107.052L110.922 22.4264H111.288L115.159 6.33076H118.716L114.06 24.651H108.15Z" fill="white"/>
<path d="M130.593 25.0174C129.094 25.0174 127.804 24.7469 126.723 24.206C125.659 23.6477 124.84 22.8626 124.264 21.8506C123.706 20.8212 123.427 19.6085 123.427 18.2127V6.33076H126.88V18.3174C126.88 19.4341 127.193 20.3152 127.821 20.9607C128.466 21.6063 129.39 21.9291 130.593 21.9291C131.796 21.9291 132.712 21.6063 133.339 20.9607C133.984 20.3152 134.307 19.4341 134.307 18.3174V6.33076H137.759V18.2127C137.759 19.6085 137.471 20.8212 136.896 21.8506C136.338 22.8626 135.519 23.6477 134.438 24.206C133.374 24.7469 132.093 25.0174 130.593 25.0174Z" fill="white"/>
<path d="M150.074 25.0174C148.661 25.0174 147.415 24.7644 146.334 24.2584C145.253 23.7524 144.407 23.0283 143.797 22.0861C143.187 21.1439 142.882 20.0098 142.882 18.6838V17.951H146.281V18.6838C146.281 19.783 146.621 20.6118 147.301 21.1701C147.981 21.711 148.905 21.9814 150.074 21.9814C151.259 21.9814 152.14 21.7459 152.715 21.2748C153.308 20.8037 153.604 20.2018 153.604 19.469C153.604 18.963 153.456 18.5529 153.16 18.2389C152.881 17.9248 152.462 17.6718 151.904 17.4799C151.364 17.2705 150.701 17.0786 149.917 16.9041L149.315 16.7733C148.06 16.4941 146.979 16.1451 146.072 15.7264C145.183 15.2902 144.494 14.7232 144.006 14.0252C143.535 13.3273 143.3 12.42 143.3 11.3034C143.3 10.1867 143.562 9.23582 144.085 8.45067C144.625 7.64807 145.375 7.0374 146.334 6.61865C147.31 6.18245 148.452 5.96436 149.76 5.96436C151.067 5.96436 152.227 6.19118 153.238 6.64482C154.267 7.08102 155.069 7.74403 155.644 8.63387C156.237 9.50626 156.533 10.6055 156.533 11.9315V12.7167H153.133V11.9315C153.133 11.2336 152.994 10.6753 152.715 10.2565C152.453 9.82032 152.07 9.50626 151.564 9.31433C151.059 9.10496 150.457 9.00027 149.76 9.00027C148.714 9.00027 147.938 9.20092 147.432 9.60222C146.944 9.98607 146.7 10.5182 146.7 11.1987C146.7 11.6523 146.813 12.0362 147.04 12.3503C147.284 12.6643 147.641 12.926 148.112 13.1354C148.583 13.3448 149.184 13.528 149.917 13.685L150.518 13.8159C151.826 14.095 152.959 14.4527 153.918 14.8889C154.894 15.3251 155.653 15.9009 156.193 16.6162C156.734 17.3316 157.004 18.2476 157.004 19.3643C157.004 20.4809 156.716 21.4667 156.141 22.3217C155.583 23.1592 154.781 23.8222 153.735 24.3107C152.706 24.7818 151.486 25.0174 150.074 25.0174Z" fill="white"/>
<path d="M64.5078 38.5702L67.2366 30.2428H68.595L71.3238 38.5702H70.5255L69.8105 36.3575H66.0212L65.3062 38.5702H64.5078ZM66.2356 35.6675H69.596L67.9873 30.6949H67.8443L66.2356 35.6675Z" fill="white"/>
<path d="M80.9197 38.7367C80.3238 38.7367 79.7995 38.6336 79.3467 38.4274C78.9019 38.2133 78.5523 37.8921 78.2981 37.4639C78.0439 37.0356 77.9168 36.4963 77.9168 35.846V30.2428H78.6794V35.846C78.6794 36.5915 78.8741 37.1466 79.2633 37.5114C79.6605 37.8683 80.2126 38.0468 80.9197 38.0468C81.6267 38.0468 82.1748 37.8683 82.5641 37.5114C82.9613 37.1466 83.1599 36.5915 83.1599 35.846V30.2428H83.9225V35.846C83.9225 36.4963 83.7954 37.0356 83.5412 37.4639C83.2949 37.8921 82.9454 38.2133 82.4926 38.4274C82.0398 38.6336 81.5155 38.7367 80.9197 38.7367Z" fill="white"/>
<path d="M91.3827 38.5702V30.2428H94.6478C95.1641 30.2428 95.6169 30.3301 96.0062 30.5046C96.4034 30.679 96.7132 30.9328 96.9357 31.2659C97.166 31.5911 97.2812 31.9876 97.2812 32.4555V32.5745C97.2812 33.1376 97.1462 33.5817 96.8761 33.9069C96.606 34.2241 96.2882 34.4343 95.9228 34.5374V34.6801C96.2008 34.6881 96.4352 34.7753 96.6258 34.9419C96.8165 35.1084 96.9118 35.3741 96.9118 35.7389V38.5702H96.1492V35.8222C96.1492 35.5684 96.0777 35.3741 95.9347 35.2393C95.7997 35.1044 95.5931 35.037 95.3151 35.037H92.1454V38.5702H91.3827ZM92.1454 34.347H94.5763C95.1959 34.347 95.6725 34.2043 96.0062 33.9188C96.3478 33.6253 96.5186 33.209 96.5186 32.6697V32.6102C96.5186 32.0709 96.3518 31.6585 96.0181 31.373C95.6924 31.0795 95.2118 30.9328 94.5763 30.9328H92.1454V34.347Z" fill="white"/>
<path d="M104.382 38.5702V30.2428H109.422V30.9328H105.144V34.0496H109.088V34.7396H105.144V37.8802H109.47V38.5702H104.382Z" fill="white"/>
<path d="M116.624 38.5702V30.2428H117.387V37.8802H121.772V38.5702H116.624Z" fill="white"/>
<path d="M128.622 38.5702V30.2428H129.385V38.5702H128.622Z" fill="white"/>
<path d="M139.851 38.7367C139.255 38.7367 138.731 38.6336 138.278 38.4274C137.833 38.2133 137.484 37.8921 137.229 37.4639C136.975 37.0356 136.848 36.4963 136.848 35.846V30.2428H137.611V35.846C137.611 36.5915 137.805 37.1466 138.195 37.5114C138.592 37.8683 139.144 38.0468 139.851 38.0468C140.558 38.0468 141.106 37.8683 141.495 37.5114C141.893 37.1466 142.091 36.5915 142.091 35.846V30.2428H142.854V35.846C142.854 36.4963 142.727 37.0356 142.472 37.4639C142.226 37.8921 141.877 38.2133 141.424 38.4274C140.971 38.6336 140.447 38.7367 139.851 38.7367Z" fill="white"/>
<path d="M153.043 38.7367C152.447 38.7367 151.915 38.6336 151.446 38.4274C150.977 38.2133 150.608 37.8921 150.338 37.4639C150.068 37.0277 149.933 36.4765 149.933 35.8103V35.5842H150.695V35.8103C150.695 36.5796 150.914 37.1506 151.351 37.5233C151.796 37.8882 152.36 38.0706 153.043 38.0706C153.734 38.0706 154.266 37.9119 154.64 37.5947C155.013 37.2695 155.2 36.8571 155.2 36.3575C155.2 36.0244 155.116 35.7587 154.949 35.5605C154.79 35.3543 154.564 35.1917 154.27 35.0727C153.984 34.9458 153.65 34.8348 153.269 34.7396L152.507 34.5493C152.054 34.4303 151.649 34.2836 151.291 34.1091C150.934 33.9267 150.652 33.6927 150.445 33.4072C150.239 33.1138 150.135 32.741 150.135 32.289C150.135 31.8369 150.25 31.4444 150.481 31.1113C150.719 30.7782 151.045 30.5244 151.458 30.3499C151.871 30.1675 152.352 30.0763 152.9 30.0763C153.448 30.0763 153.94 30.1715 154.377 30.3618C154.822 30.5521 155.172 30.8337 155.426 31.2064C155.688 31.5713 155.819 32.0312 155.819 32.5864V33.1455H155.057V32.5864C155.057 32.1502 154.961 31.7973 154.771 31.5276C154.58 31.258 154.322 31.0597 153.996 30.9328C153.67 30.8059 153.305 30.7425 152.9 30.7425C152.32 30.7425 151.839 30.8773 151.458 31.147C151.085 31.4087 150.898 31.7894 150.898 32.289C150.898 32.6221 150.973 32.8878 151.124 33.086C151.283 33.2843 151.502 33.4429 151.78 33.5619C152.066 33.6809 152.399 33.7879 152.781 33.8831L153.543 34.0734C153.98 34.1765 154.381 34.3153 154.747 34.4898C155.112 34.6563 155.406 34.8903 155.629 35.1917C155.851 35.4851 155.962 35.8737 155.962 36.3575C155.962 36.8413 155.839 37.2616 155.593 37.6185C155.354 37.9754 155.017 38.253 154.58 38.4512C154.143 38.6416 153.631 38.7367 153.043 38.7367Z" fill="white"/>
<path fill-rule="evenodd" clip-rule="evenodd" d="M50.3263 9.92826L51.2185 0.497437L42.9674 6.63027L45.3528 7.69933L31.9138 28.897L27.98 10.4385H18.5857L8.10156 34.1737H17.1766L23.4652 18.3242L25.8664 34.1737H35.8535L48.3237 9.03075L50.3263 9.92826Z" fill="#188AFD"/>
<path fill-rule="evenodd" clip-rule="evenodd" d="M43.2783 0.910785C41.8182 0.323319 40.2235 0 38.5532 0H12.6653C5.67046 0 0 5.67046 0 12.6653V32.0179C0 39.0128 5.67046 44.6832 12.6653 44.6832H38.5532C45.5481 44.6832 51.2185 39.0128 51.2185 32.0179V14.697L47.0137 21.9277V32.0179C47.0137 36.6905 43.2258 40.4784 38.5532 40.4784H12.6653C7.99275 40.4784 4.20489 36.6905 4.20489 32.0179V12.6653C4.20489 7.99275 7.99275 4.20489 12.6653 4.20489H38.5532C39.2354 4.20489 39.8988 4.28563 40.5343 4.43809L43.2783 0.910785Z" fill="white"/>
</svg>
