<svg width="1555" height="525" viewBox="0 0 1555 525" fill="none" xmlns="http://www.w3.org/2000/svg">
<line y1="0.5" x2="1554.35" y2="0.5" stroke="#0021D4"/>
<line x1="163.675" y1="1" x2="163.675" y2="518" stroke="#0021D4" stroke-dasharray="10 10"/>
<line x1="244.675" y1="1" x2="244.675" y2="525" stroke="#0021D4" stroke-dasharray="10 10"/>
<line x1="326.675" y1="1" x2="326.675" y2="525" stroke="#0021D4" stroke-dasharray="10 10"/>
<line x1="408.675" y1="1" x2="408.675" y2="525" stroke="#0021D4" stroke-dasharray="10 10"/>
<line x1="490.675" y1="1" x2="490.675" y2="525" stroke="#B8C3FF" stroke-dasharray="10 10"/>
<line x1="571.675" y1="1" x2="571.675" y2="525" stroke="#B8C3FF" stroke-dasharray="10 10"/>
<line x1="653.675" y1="1" x2="653.675" y2="525" stroke="#B8C3FF" stroke-dasharray="10 10"/>
<line x1="735.675" y1="1" x2="735.675" y2="525" stroke="#B8C3FF" stroke-dasharray="10 10"/>
<line x1="817.675" y1="1" x2="817.675" y2="525" stroke="#B8C3FF" stroke-dasharray="10 10"/>
<line x1="898.675" y1="1" x2="898.675" y2="525" stroke="#B8C3FF" stroke-dasharray="10 10"/>
<line x1="981.675" y1="1" x2="981.675" y2="525" stroke="#B8C3FF" stroke-dasharray="10 10"/>
<line x1="1062.67" y1="1" x2="1062.67" y2="525" stroke="#B8C3FF" stroke-dasharray="10 10"/>
<line x1="1144.67" y1="1" x2="1144.67" y2="525" stroke="#0021D4" stroke-dasharray="10 10"/>
<line x1="1225.67" y1="1" x2="1225.67" y2="525" stroke="#0021D4" stroke-dasharray="10 10"/>
<line x1="1307.67" y1="1" x2="1307.67" y2="525" stroke="#0021D4" stroke-dasharray="10 10"/>
<line x1="1389.67" y1="1" x2="1389.67" y2="518" stroke="#0021D4" stroke-dasharray="10 10"/>
<path d="M81.1748 90H1466.17" stroke="#B8C3FF" stroke-dasharray="10 10"/>
<line x1="81.1748" y1="178.5" x2="1466.17" y2="178.5" stroke="#B8C3FF" stroke-dasharray="10 10"/>
<line x1="88.1748" y1="267.5" x2="1466.17" y2="267.5" stroke="#0021D4" stroke-dasharray="10 10"/>
<line x1="88.1748" y1="356.5" x2="1466.17" y2="356.5" stroke="#0021D4" stroke-dasharray="10 10"/>
<line x1="88.1748" y1="445.5" x2="1466.17" y2="445.5" stroke="#0021D4" stroke-dasharray="10 10"/>
</svg>
