<svg width="14" height="15" viewBox="0 0 14 15" fill="none" xmlns="http://www.w3.org/2000/svg">
<path d="M11.6667 7H2.33333C1.59695 7 1 7.59695 1 8.33333V13C1 13.7364 1.59695 14.3333 2.33333 14.3333H11.6667C12.403 14.3333 13 13.7364 13 13V8.33333C13 7.59695 12.403 7 11.6667 7Z" stroke="#767881" stroke-linecap="round" stroke-linejoin="round"/>
<path d="M3.66602 7V4.33333C3.66602 3.44928 4.01721 2.60143 4.64233 1.97631C5.26745 1.35119 6.11529 1 6.99935 1C7.8834 1 8.73125 1.35119 9.35637 1.97631C9.98149 2.60143 10.3327 3.44928 10.3327 4.33333V7" stroke="#767881" stroke-linecap="round" stroke-linejoin="round"/>
</svg>
