<svg width="16" height="16" viewBox="0 0 16 16" fill="none" xmlns="http://www.w3.org/2000/svg">
<rect width="16" height="16" fill="#070D2D"/>
<path fill-rule="evenodd" clip-rule="evenodd" d="M13.7799 4.78224L13.9995 2.46094L11.9686 3.97047L12.5558 4.23361L9.24787 9.45121L8.27959 4.90783H5.96728L3.38672 10.75H5.62045L7.16833 6.84882L7.75935 10.75H10.2176L13.287 4.56133L13.7799 4.78224Z" fill="#188AFD"/>
<path fill-rule="evenodd" clip-rule="evenodd" d="M12.0451 2.56793C11.6857 2.42333 11.2932 2.34375 10.8821 2.34375H4.51002C2.78831 2.34375 1.39258 3.73948 1.39258 5.46119V10.2246C1.39258 11.9464 2.78831 13.3421 4.51002 13.3421H10.8821C12.6038 13.3421 13.9995 11.9464 13.9995 10.2246V5.96127L12.9645 7.74103V10.2246C12.9645 11.3748 12.0322 12.3071 10.8821 12.3071H4.51002C3.35992 12.3071 2.42757 11.3748 2.42757 10.2246V5.46119C2.42757 4.31109 3.35991 3.37874 4.51002 3.37874H10.8821C11.05 3.37874 11.2133 3.39862 11.3697 3.43614L12.0451 2.56793Z" fill="white"/>
</svg>
